<svg xmlns="http://www.w3.org/2000/svg" width="17" height="18" viewBox="0 0 17 18" fill="none">
  <g clip-path="url(#clip0_552_47397)">
    <path d="M8.50344 4.95732C6.23201 4.95732 4.39987 6.76084 4.39987 8.99677C4.39987 11.2327 6.23201 13.0362 8.50344 13.0362C10.7749 13.0362 12.607 11.2327 12.607 8.99677C12.607 6.76084 10.7749 4.95732 8.50344 4.95732ZM8.50344 11.6229C7.03558 11.6229 5.83558 10.4452 5.83558 8.99677C5.83558 7.54834 7.03201 6.3706 8.50344 6.3706C9.97486 6.3706 11.1713 7.54834 11.1713 8.99677C11.1713 10.4452 9.97129 11.6229 8.50344 11.6229ZM13.732 4.79209C13.732 5.31592 13.3034 5.73428 12.7749 5.73428C12.2427 5.73428 11.8177 5.3124 11.8177 4.79209C11.8177 4.27178 12.2463 3.8499 12.7749 3.8499C13.3034 3.8499 13.732 4.27178 13.732 4.79209ZM16.4499 5.74834C16.3891 4.48623 16.0963 3.36826 15.157 2.44717C14.2213 1.52607 13.0856 1.23779 11.8034 1.17451C10.482 1.10068 6.5213 1.10068 5.19987 1.17451C3.9213 1.23428 2.78558 1.52256 1.8463 2.44365C0.907014 3.36474 0.617728 4.48271 0.553442 5.74482C0.478442 7.0456 0.478442 10.9444 0.553442 12.2452C0.614157 13.5073 0.907014 14.6253 1.8463 15.5464C2.78558 16.4675 3.91773 16.7558 5.19987 16.819C6.5213 16.8929 10.482 16.8929 11.8034 16.819C13.0856 16.7593 14.2213 16.471 15.157 15.5464C16.0927 14.6253 16.3856 13.5073 16.4499 12.2452C16.5249 10.9444 16.5249 7.04912 16.4499 5.74834ZM14.7427 13.6409C14.4641 14.33 13.9249 14.8608 13.2213 15.1386C12.1677 15.5499 9.66772 15.455 8.50344 15.455C7.33915 15.455 4.83558 15.5464 3.78558 15.1386C3.08558 14.8643 2.5463 14.3335 2.26416 13.6409C1.8463 12.6038 1.94273 10.1429 1.94273 8.99677C1.94273 7.85068 1.84987 5.38623 2.26416 4.35263C2.54273 3.66357 3.08201 3.13271 3.78558 2.85498C4.83915 2.44365 7.33915 2.53857 8.50344 2.53857C9.66772 2.53857 12.1713 2.44717 13.2213 2.85498C13.9213 3.1292 14.4606 3.66006 14.7427 4.35263C15.1606 5.38974 15.0641 7.85068 15.0641 8.99677C15.0641 10.1429 15.1606 12.6073 14.7427 13.6409Z" fill="#3D3D3D"/>
  </g>
  <defs>
    <clipPath id="clip0_552_47397">
      <rect width="16" height="18" fill="white" transform="translate(0.500122)"/>
    </clipPath>
  </defs>
</svg>