<svg xmlns="http://www.w3.org/2000/svg" width="46" height="32" viewBox="0 0 46 32" fill="none">
  <rect x="0.5" y="0.5" width="45" height="31" rx="5.5" fill="#B2FCE5"/>
  <rect x="0.5" y="0.5" width="45" height="31" rx="5.5" stroke="#F2F4F7"/>
  <path d="M31.6947 10.7749L25.7655 7.3535C24.0251 6.34919 21.8496 7.60421 21.8496 9.61431V9.9653C21.8496 10.2824 22.0192 10.5758 22.2935 10.7336L23.413 11.3796C23.7419 11.5698 24.1519 11.3324 24.1519 10.9534V10.0803C24.1519 9.6438 24.6239 9.37097 25.0015 9.58923L30.1372 12.5535C30.5148 12.7718 30.5148 13.3174 30.1372 13.5342L25.0015 16.4985C24.6239 16.7168 24.1519 16.4439 24.1519 16.0074V15.5428C24.1519 13.5327 21.9764 12.2762 20.2345 13.282L14.3053 16.7034C12.5649 17.7078 12.5649 20.2208 14.3053 21.2251L20.2345 24.6465C21.9749 25.6508 24.1519 24.3958 24.1519 22.3857V22.0347C24.1519 21.7176 23.9823 21.4256 23.7079 21.2664L22.5885 20.619C22.2596 20.4287 21.8496 20.6662 21.8496 21.0451V21.9182C21.8496 22.3547 21.3776 22.6275 21 22.4093L15.8643 19.4451C15.4867 19.2267 15.4867 18.6811 15.8643 18.4628L21 15.4986C21.3776 15.2804 21.8496 15.5532 21.8496 15.9897V16.4543C21.8496 18.4643 24.0251 19.7208 25.7655 18.715L31.6947 15.2936C33.4351 14.2922 33.4351 11.7792 31.6947 10.7749Z" fill="black"/>
</svg>