<svg xmlns="http://www.w3.org/2000/svg" width="15" height="16" viewBox="0 0 15 16" fill="none">
  <path d="M11.6667 6.33301C13.0475 6.33301 14.1667 5.21372 14.1667 3.83301C14.1667 2.4523 13.0475 1.33301 11.6667 1.33301C10.286 1.33301 9.16675 2.4523 9.16675 3.83301C9.16675 5.21372 10.286 6.33301 11.6667 6.33301Z" fill="#3DD28A" stroke="#3DD28A" stroke-width="1.2" stroke-linecap="round" stroke-linejoin="round"/>
  <path d="M3.33337 14.666C4.71409 14.666 5.83337 13.5467 5.83337 12.166C5.83337 10.7853 4.71409 9.66602 3.33337 9.66602C1.95266 9.66602 0.833374 10.7853 0.833374 12.166C0.833374 13.5467 1.95266 14.666 3.33337 14.666Z" stroke="#3DD28A" stroke-width="1.5" stroke-linecap="round" stroke-linejoin="round"/>
  <path d="M9.16671 9.66634H14.1667V13.833C14.1667 14.054 14.0789 14.266 13.9226 14.4223C13.7663 14.5785 13.5544 14.6663 13.3334 14.6663H10C9.77903 14.6663 9.56707 14.5785 9.41078 14.4223C9.2545 14.266 9.16671 14.054 9.16671 13.833V9.66634ZM0.833374 1.33301H5.83337V5.49967C5.83337 5.72069 5.74558 5.93265 5.5893 6.08893C5.43302 6.24521 5.22105 6.33301 5.00004 6.33301H1.66671C1.44569 6.33301 1.23373 6.24521 1.07745 6.08893C0.921172 5.93265 0.833374 5.72069 0.833374 5.49967V1.33301Z" stroke="#3DD28A" stroke-width="1.5" stroke-linecap="round" stroke-linejoin="round"/>
</svg>