<svg xmlns="http://www.w3.org/2000/svg" width="20" height="20" viewBox="0 0 20 20" fill="none">
  <path d="M16.6922 7.94254L10.4422 14.1925C10.3841 14.2506 10.3152 14.2967 10.2393 14.3282C10.1634 14.3597 10.0821 14.3758 9.99998 14.3758C9.91785 14.3758 9.83652 14.3597 9.76064 14.3282C9.68477 14.2967 9.61584 14.2506 9.55779 14.1925L3.30779 7.94254C3.19052 7.82526 3.12463 7.6662 3.12463 7.50035C3.12463 7.3345 3.19052 7.17544 3.30779 7.05816C3.42507 6.94088 3.58413 6.875 3.74998 6.875C3.91583 6.875 4.07489 6.94088 4.19217 7.05816L9.99998 12.8668L15.8078 7.05816C15.8659 7.00009 15.9348 6.95403 16.0107 6.9226C16.0865 6.89117 16.1679 6.875 16.25 6.875C16.3321 6.875 16.4134 6.89117 16.4893 6.9226C16.5652 6.95403 16.6341 7.00009 16.6922 7.05816C16.7502 7.11623 16.7963 7.18517 16.8277 7.26104C16.8592 7.33691 16.8753 7.41823 16.8753 7.50035C16.8753 7.58247 16.8592 7.66379 16.8277 7.73966C16.7963 7.81553 16.7502 7.88447 16.6922 7.94254Z" fill="black"/>
</svg>