<svg xmlns="http://www.w3.org/2000/svg" width="21" height="20" viewBox="0 0 21 20" fill="none">
  <path d="M1.33337 15.833V3.33301H3.00004V11.6663H9.66671V4.99967H16.3334C17.25 4.99967 18.0348 5.32606 18.6875 5.97884C19.3403 6.63162 19.6667 7.41634 19.6667 8.33301V15.833H18V13.333H3.00004V15.833H1.33337ZM6.33337 10.833C5.63893 10.833 5.04865 10.59 4.56254 10.1038C4.07643 9.61773 3.83337 9.02745 3.83337 8.33301C3.83337 7.63856 4.07643 7.04829 4.56254 6.56217C5.04865 6.07606 5.63893 5.83301 6.33337 5.83301C7.02782 5.83301 7.6181 6.07606 8.10421 6.56217C8.59032 7.04829 8.83337 7.63856 8.83337 8.33301C8.83337 9.02745 8.59032 9.61773 8.10421 10.1038C7.6181 10.59 7.02782 10.833 6.33337 10.833Z" fill="#FF8664"/>
  <path d="M1.33337 15.833V3.33301H3.00004V11.6663H9.66671V4.99967H16.3334C17.25 4.99967 18.0348 5.32606 18.6875 5.97884C19.3403 6.63162 19.6667 7.41634 19.6667 8.33301V15.833H18V13.333H3.00004V15.833H1.33337ZM6.33337 10.833C5.63893 10.833 5.04865 10.59 4.56254 10.1038C4.07643 9.61773 3.83337 9.02745 3.83337 8.33301C3.83337 7.63856 4.07643 7.04829 4.56254 6.56217C5.04865 6.07606 5.63893 5.83301 6.33337 5.83301C7.02782 5.83301 7.6181 6.07606 8.10421 6.56217C8.59032 7.04829 8.83337 7.63856 8.83337 8.33301C8.83337 9.02745 8.59032 9.61773 8.10421 10.1038C7.6181 10.59 7.02782 10.833 6.33337 10.833Z" fill="url(#paint0_linear_509_44680)"/>
  <defs>
    <linearGradient id="paint0_linear_509_44680" x1="1.33337" y1="9.58301" x2="19.6667" y2="9.58301" gradientUnits="userSpaceOnUse">
      <stop stop-color="#F63C9F"/>
      <stop offset="1" stop-color="#FB28C6"/>
    </linearGradient>
  </defs>
</svg>