<svg xmlns="http://www.w3.org/2000/svg" width="18" height="19" viewBox="0 0 18 19" fill="none">
  <path d="M12.75 14.75H14.25V8.75H9.75V14.75H11.25V10.25H12.75V14.75ZM2.25 14.75V3.5C2.25 3.30109 2.32902 3.11032 2.46967 2.96967C2.61032 2.82902 2.80109 2.75 3 2.75H13.5C13.6989 2.75 13.8897 2.82902 14.0303 2.96967C14.171 3.11032 14.25 3.30109 14.25 3.5V7.25H15.75V14.75H16.5V16.25H1.5V14.75H2.25ZM5.25 8.75V10.25H6.75V8.75H5.25ZM5.25 11.75V13.25H6.75V11.75H5.25ZM5.25 5.75V7.25H6.75V5.75H5.25Z" fill="#7A7A7A"/>
</svg>