<svg xmlns="http://www.w3.org/2000/svg" width="25" height="26" viewBox="0 0 25 26" fill="none">
  <path d="M7.31117 0.990574C7.36707 0.990246 7.42297 0.989917 7.48056 0.989578C7.66 0.988762 7.83943 0.98846 8.01888 0.988377C8.11069 0.98833 8.11069 0.98833 8.20437 0.988281C9.07458 0.988997 9.92676 1.0018 10.7874 1.14072C10.841 1.14901 10.8946 1.15731 10.9498 1.16585C12.3739 1.3901 13.7727 1.74745 15.1234 2.254C15.1564 2.26605 15.1895 2.2781 15.2235 2.29052C15.4907 2.39532 15.6457 2.54528 15.8031 2.78135C15.815 2.89593 15.815 2.89593 15.8153 3.0348C15.8156 3.08747 15.8159 3.14014 15.8163 3.19441C15.8162 3.25226 15.8161 3.31011 15.8159 3.36971C15.8163 3.4611 15.8163 3.4611 15.8167 3.55433C15.8173 3.72184 15.8173 3.88935 15.8172 4.05686C15.8171 4.19738 15.8174 4.3379 15.8176 4.47843C15.8181 4.8111 15.8181 5.14378 15.8179 5.47645C15.8176 5.81702 15.8181 6.15758 15.8191 6.49814C15.82 6.79203 15.8203 7.08592 15.8201 7.3798C15.82 7.55461 15.8201 7.72942 15.8208 7.90422C15.8243 8.91193 15.775 9.89839 15.5394 10.8819C15.5275 10.9321 15.5155 10.9822 15.5032 11.0339C15.1006 12.6629 14.3729 14.2581 13.2889 15.549C13.2238 15.6264 13.1598 15.7046 13.0958 15.7829C12.5767 16.4104 12.0012 17.0091 11.3499 17.5001C11.3247 17.5195 11.2996 17.5389 11.2736 17.5589C10.5666 18.1024 9.80392 18.556 9.00618 18.9532C8.96194 18.9757 8.96194 18.9757 8.9168 18.9985C8.833 19.0404 8.74821 19.0804 8.66341 19.1202C8.61622 19.1425 8.56903 19.1648 8.5204 19.1878C8.03861 19.3197 7.66705 19.2178 7.23079 19.0001C7.18167 18.9765 7.13255 18.9529 7.08194 18.9286C5.47569 18.1483 3.951 17.0079 2.86556 15.5782C2.82047 15.5204 2.77536 15.4626 2.73024 15.4048C2.41388 14.9958 2.13107 14.5778 1.88118 14.1251C1.85918 14.0853 1.83718 14.0454 1.81451 14.0044C1.19301 12.8685 0.767534 11.7156 0.507158 10.4454C0.496803 10.3951 0.496803 10.3951 0.486238 10.3439C0.464354 10.2296 0.446097 10.1151 0.428057 10.0001C0.420227 9.95187 0.412397 9.90364 0.40433 9.85395C0.310377 9.18364 0.318869 8.51033 0.318626 7.83492C0.318559 7.72964 0.318358 7.62436 0.318111 7.51908C0.317249 7.151 0.31686 6.78292 0.316935 6.41483C0.316991 6.07274 0.315995 5.73067 0.314521 5.38858C0.313295 5.09342 0.312793 4.79826 0.312853 4.50309C0.312876 4.3274 0.312612 4.15172 0.311617 3.97603C0.31054 3.78072 0.310967 3.58545 0.311533 3.39014C0.311006 3.33235 0.310479 3.27456 0.309937 3.21503C0.312135 2.91725 0.316235 2.72404 0.521807 2.5001C0.875928 2.2365 1.37752 2.12389 1.79329 1.9874C1.83068 1.97504 1.86807 1.96269 1.9066 1.94995C3.63982 1.37865 5.48052 0.997793 7.31117 0.990574ZM3.24642 6.95908C3.16704 7.16194 3.16368 7.34779 3.19368 7.5626C3.29189 7.78357 3.41766 7.88824 3.63487 7.99226C3.89349 8.07558 4.16679 8.05808 4.43587 8.05625C4.5017 8.05637 4.56752 8.05656 4.63335 8.05679C4.77078 8.05707 4.90818 8.05667 5.04561 8.05579C5.22088 8.05472 5.39609 8.05534 5.57136 8.05646C5.70713 8.05714 5.84289 8.05692 5.97866 8.05644C6.04324 8.05631 6.10783 8.05646 6.17241 8.0569C6.54227 8.05887 6.81759 8.04945 7.13118 7.84385C7.28791 7.67928 7.33147 7.54992 7.34212 7.32822C7.33253 7.10842 7.28137 6.97902 7.13118 6.8126C6.94268 6.67336 6.80573 6.65406 6.57345 6.65303C6.54187 6.65271 6.51028 6.65239 6.47774 6.65206C6.37383 6.6512 6.26995 6.65138 6.16603 6.65165C6.09347 6.65143 6.02092 6.65118 5.94836 6.6509C5.79646 6.65048 5.64457 6.6506 5.49267 6.65106C5.29843 6.6516 5.10422 6.65065 4.90998 6.64928C4.76018 6.64842 4.61039 6.64844 4.46059 6.64871C4.38899 6.64871 4.3174 6.64843 4.2458 6.64785C4.1455 6.64715 4.04527 6.64765 3.94497 6.64845C3.88802 6.64846 3.83106 6.64847 3.77237 6.64848C3.54405 6.68268 3.39757 6.78778 3.24642 6.95908ZM8.87142 6.95908C8.79204 7.16194 8.78868 7.34779 8.81868 7.5626C8.91689 7.78357 9.04266 7.88824 9.25987 7.99226C9.51849 8.07558 9.79179 8.05808 10.0609 8.05625C10.1267 8.05637 10.1925 8.05656 10.2583 8.05679C10.3958 8.05707 10.5332 8.05667 10.6706 8.05579C10.8459 8.05472 11.0211 8.05534 11.1964 8.05646C11.3321 8.05714 11.4679 8.05692 11.6037 8.05644C11.6682 8.05631 11.7328 8.05646 11.7974 8.0569C12.1673 8.05887 12.4426 8.04945 12.7562 7.84385C12.9129 7.67928 12.9565 7.54992 12.9671 7.32822C12.9575 7.10842 12.9064 6.97902 12.7562 6.8126C12.5677 6.67336 12.4307 6.65406 12.1985 6.65303C12.1669 6.65271 12.1353 6.65239 12.1027 6.65206C11.9988 6.6512 11.8949 6.65138 11.791 6.65165C11.7185 6.65143 11.6459 6.65118 11.5734 6.6509C11.4215 6.65048 11.2696 6.6506 11.1177 6.65106C10.9234 6.6516 10.7292 6.65065 10.535 6.64928C10.3852 6.64842 10.2354 6.64844 10.0856 6.64871C10.014 6.64871 9.9424 6.64843 9.8708 6.64785C9.7705 6.64715 9.67027 6.64765 9.56997 6.64845C9.51302 6.64846 9.45606 6.64847 9.39737 6.64848C9.16905 6.68268 9.02257 6.78778 8.87142 6.95908ZM4.65267 11.1778C4.57327 11.3807 4.57008 11.5665 4.59993 11.7813C4.90795 12.451 5.85425 12.9057 6.51792 13.1533C7.6839 13.5627 8.99181 13.4772 10.1023 12.9461C10.6151 12.6894 11.2724 12.3114 11.5374 11.7813C11.563 11.5479 11.5628 11.3644 11.4583 11.1515C11.2815 10.9555 11.1532 10.8825 10.89 10.8644C10.613 10.8734 10.4717 10.9922 10.2718 11.172C9.44095 11.8814 8.57467 12.0312 7.50618 11.9688C6.88339 11.901 6.2619 11.5636 5.82399 11.1242C5.64855 10.9598 5.50225 10.8706 5.25911 10.8702C4.98524 10.8792 4.8335 10.9729 4.65267 11.1778Z" fill="#0DE6F4"/>
  <path d="M17.3033 6.76609C19.2232 6.74947 21.1547 7.18169 22.9693 7.78269C23.018 7.79872 23.018 7.79872 23.0677 7.81508C24.1085 8.16016 24.1085 8.16016 24.2946 8.45013C24.3849 8.67004 24.3599 8.91782 24.3581 9.15167C24.3584 9.24308 24.3584 9.24308 24.3588 9.33635C24.3595 9.50328 24.3589 9.67019 24.3582 9.83711C24.3575 10.013 24.3578 10.1888 24.358 10.3647C24.3581 10.6608 24.3575 10.9569 24.3564 11.2531C24.3552 11.5926 24.3551 11.9321 24.3556 12.2716C24.3561 12.6006 24.3558 12.9295 24.3552 13.2584C24.3549 13.3971 24.3549 13.5358 24.3551 13.6745C24.3564 14.6803 24.306 15.6663 24.0709 16.6479C24.0589 16.6981 24.047 16.7482 24.0347 16.7999C23.6314 18.4316 22.902 20.0236 21.8179 21.3174C21.7575 21.3898 21.6984 21.4633 21.6394 21.5368C21.1245 22.172 20.5358 22.7748 19.8814 23.2661C19.8563 23.2854 19.8312 23.3047 19.8053 23.3247C19.0982 23.8683 18.3355 24.322 17.5377 24.7192C17.4934 24.7416 17.4934 24.7416 17.4483 24.7645C17.3645 24.8064 17.2797 24.8464 17.1949 24.8862C17.1477 24.9085 17.1005 24.9308 17.0519 24.9538C16.6015 25.0771 16.2339 25.002 15.8238 24.7983C15.7796 24.7773 15.7355 24.7562 15.69 24.7345C14.6177 24.2138 13.6513 23.559 12.7716 22.7552C12.6765 22.6692 12.5794 22.5867 12.481 22.5044C11.7707 21.8826 11.2113 21.0959 10.6939 20.313C10.6712 20.2797 10.6486 20.2465 10.6252 20.2122C10.6033 20.1791 10.5814 20.146 10.5588 20.1119C10.5386 20.082 10.5185 20.052 10.4978 20.0212C10.4595 19.938 10.4595 19.938 10.5064 19.7973C10.6265 19.7213 10.6265 19.7213 10.7877 19.6362C11.6816 19.1466 12.4938 18.4881 13.2252 17.7817C13.2543 17.7536 13.2834 17.7256 13.3133 17.6966C13.6841 17.337 14.0342 16.9725 14.3502 16.563C14.387 16.517 14.4238 16.4711 14.4617 16.4238C15.8836 14.6369 16.7858 12.441 17.1158 10.188C17.1237 10.1349 17.1317 10.0819 17.1398 10.0272C17.2288 9.3639 17.2415 8.69706 17.2623 8.02878C17.2663 7.90595 17.2704 7.78312 17.2745 7.66028C17.2845 7.36223 17.294 7.06416 17.3033 6.76609ZM17.4 12.7251C17.3033 12.9868 17.3073 13.2322 17.4205 13.4868C17.6596 13.7378 17.8862 13.8079 18.2247 13.8216C18.3473 13.8228 18.4697 13.8231 18.5923 13.8222C18.6582 13.8224 18.724 13.8225 18.7898 13.8228C18.9273 13.8231 19.0647 13.8227 19.2021 13.8218C19.3774 13.8207 19.5526 13.8213 19.7278 13.8225C19.8636 13.8231 19.9994 13.8229 20.1351 13.8224C20.1997 13.8223 20.2643 13.8225 20.3289 13.8229C20.6988 13.8249 20.9741 13.8154 21.2877 13.6098C21.4444 13.4453 21.4879 13.3159 21.4986 13.0942C21.4887 12.8741 21.4406 12.7436 21.2877 12.5786C21.0807 12.4543 20.9271 12.4201 20.6871 12.419C20.6565 12.4187 20.6259 12.4184 20.5943 12.418C20.494 12.4172 20.3936 12.4174 20.2932 12.4176C20.2229 12.4174 20.1527 12.4172 20.0824 12.4169C19.9354 12.4165 19.7884 12.4166 19.6414 12.4171C19.4536 12.4176 19.2659 12.4166 19.0781 12.4153C18.933 12.4144 18.788 12.4144 18.6429 12.4147C18.5737 12.4147 18.5045 12.4144 18.4353 12.4138C17.859 12.4056 17.859 12.4056 17.4 12.7251ZM15.147 16.8911C15.0925 16.9092 15.0379 16.9272 14.9817 16.9458C14.4981 17.1202 14.0782 17.3529 13.6734 17.6675C13.6457 17.689 13.6179 17.7105 13.5894 17.7327C13.4037 17.8812 13.2394 18.0344 13.1314 18.2505C13.1058 18.4839 13.106 18.6675 13.2105 18.8803C13.3526 19.0378 13.4474 19.1267 13.6626 19.1559C13.9356 19.1686 14.0896 19.1348 14.3033 18.9536C14.3277 18.9297 14.3521 18.9059 14.3773 18.8813C14.9053 18.3796 15.6449 18.1049 16.3658 18.063C16.3996 18.0605 16.4333 18.058 16.4681 18.0555C17.3766 18.0202 18.2441 18.3504 18.9234 18.9477C18.967 18.9882 18.967 18.9882 19.0115 19.0294C19.17 19.17 19.3242 19.1566 19.5278 19.1543C19.7501 19.1297 19.8731 19.0162 20.0162 18.854C20.0938 18.6555 20.109 18.4602 20.0689 18.2505C19.647 17.4993 18.6968 17.0947 17.9127 16.8442C17.8641 16.8282 17.8155 16.8122 17.7654 16.7957C16.9385 16.5723 15.9569 16.6229 15.147 16.8911Z" fill="#0DE6F4"/>
</svg>