<svg xmlns="http://www.w3.org/2000/svg" width="32" height="32" viewBox="0 0 32 32" fill="none">
  <g clip-path="url(#clip0_509_46659)">
    <path d="M28.3048 26.2053C29.9473 24.2308 31.0896 21.8901 31.6352 19.3811C32.1808 16.8722 32.1136 14.2689 31.4392 11.7914C30.7649 9.31394 29.5033 7.03518 27.7611 5.14791C26.019 3.26064 23.8475 1.82038 21.4305 0.948968C19.0134 0.0775584 16.4218 -0.199364 13.875 0.141625C11.3282 0.482615 8.90101 1.43149 6.79882 2.90797C4.69663 4.38445 2.98127 6.34511 1.79785 8.62408C0.614425 10.903 -0.00224457 13.4333 6.13884e-06 16.0008C0.000967571 19.7331 1.31731 23.3459 3.71809 26.2053L3.69522 26.2247C3.77527 26.3207 3.86677 26.403 3.94911 26.4978C4.05204 26.6155 4.16298 26.7264 4.26934 26.8407C4.58805 27.1888 4.91971 27.5202 5.26434 27.8348C5.37108 27.9293 5.47782 28.0215 5.58457 28.1114C5.95054 28.4275 6.32795 28.7254 6.7168 29.005C6.76713 29.0393 6.81287 29.0838 6.86319 29.1193V29.1055C9.54173 30.9891 12.7372 32 16.0126 32C19.288 32 22.4834 30.9891 25.162 29.1055V29.1193C25.2123 29.0838 25.2569 29.0393 25.3084 29.005C25.6972 28.7246 26.0746 28.4268 26.4406 28.1114C26.5473 28.0207 26.6541 27.9285 26.7608 27.8348C27.1047 27.5202 27.4364 27.1888 27.7558 26.8407C27.8622 26.7264 27.972 26.6155 28.0761 26.4978C28.1573 26.403 28.2499 26.3207 28.33 26.2236L28.3048 26.2053ZM16.0114 6.85894C17.0293 6.85894 18.0244 7.16053 18.8707 7.72557C19.717 8.29061 20.3767 9.09372 20.7662 10.0333C21.1557 10.973 21.2577 12.0069 21.0591 13.0044C20.8605 14.0019 20.3703 14.9182 19.6506 15.6373C18.9308 16.3565 18.0138 16.8463 17.0155 17.0447C16.0172 17.2431 14.9824 17.1413 14.042 16.752C13.1015 16.3628 12.2978 15.7037 11.7323 14.8581C11.1667 14.0125 10.8649 13.0183 10.8649 12.0012C10.8649 10.6374 11.4071 9.32944 12.3723 8.36508C13.3375 7.40071 14.6465 6.85894 16.0114 6.85894ZM6.87006 26.2053C6.8899 24.7049 7.50016 23.2726 8.56882 22.2183C9.63748 21.164 11.0786 20.5724 12.5804 20.5717H19.4425C20.9443 20.5724 22.3854 21.164 23.4541 22.2183C24.5227 23.2726 25.133 24.7049 25.1528 26.2053C22.6446 28.4637 19.3879 29.7136 16.0114 29.7136C12.635 29.7136 9.37831 28.4637 6.87006 26.2053Z" fill="#666666"/>
  </g>
  <defs>
    <clipPath id="clip0_509_46659">
      <rect width="32" height="32" fill="white"/>
    </clipPath>
  </defs>
</svg>