<svg xmlns="http://www.w3.org/2000/svg" width="21" height="20" viewBox="0 0 21 20" fill="none">
  <g clip-path="url(#clip0_509_25674)">
    <path d="M19.3196 14.957C19.5288 15.0246 19.7 14.9002 19.7 14.6802V13.2826C19.7 13.0626 19.5452 12.7906 19.3564 12.6778L12.0436 8.31981C11.8548 8.20741 11.7 7.93501 11.7 7.71541V2.83301C11.7 2.61301 11.6328 2.26621 11.5504 2.06181C11.5504 2.06181 11.114 0.978608 10.3504 0.857808C10.2687 0.842412 10.1859 0.834115 10.1028 0.833008H10.0988C10.003 0.833357 9.90751 0.843002 9.8136 0.861808L9.7272 0.881008L9.596 0.921808C8.9608 1.13381 8.6336 2.05581 8.6336 2.05581C8.55262 2.30727 8.50765 2.56894 8.5 2.83301V7.71541C8.5 7.93541 8.3452 8.20741 8.1564 8.32021L0.8436 12.6778C0.6548 12.7906 0.5 13.0626 0.5 13.2826V14.6802C0.5 14.9002 0.6712 15.0246 0.8804 14.9566L8.1196 12.6066C8.3288 12.539 8.5 12.6634 8.5 12.8834V16.6966C8.5 16.9166 8.356 17.205 8.18 17.337L7.22 18.0578C7.044 18.1898 6.9 18.4782 6.9 18.6982V19.633C6.9 19.853 7.0732 19.9834 7.2844 19.9226L9.7144 19.2246C9.9256 19.1638 10.272 19.1638 10.4832 19.2246L12.9156 19.9226C13.1268 19.9834 13.3 19.853 13.3 19.633V18.6978C13.3 18.4778 13.156 18.1894 12.98 18.0574L12.02 17.3366C11.8444 17.2046 11.7 16.9162 11.7 16.6962V12.883C11.7 12.663 11.8712 12.5386 12.0804 12.6066L19.3196 14.957Z" fill="url(#paint0_linear_509_25674)"/>
  </g>
  <defs>
    <linearGradient id="paint0_linear_509_25674" x1="19.7" y1="10.3853" x2="0.5" y2="10.3853" gradientUnits="userSpaceOnUse">
      <stop stop-color="#55ABFF"/>
      <stop offset="1" stop-color="#63B7FF"/>
    </linearGradient>
    <clipPath id="clip0_509_25674">
      <rect width="20" height="20" fill="white" transform="translate(0.5)"/>
    </clipPath>
  </defs>
</svg>