<svg xmlns="http://www.w3.org/2000/svg" width="21" height="20" viewBox="0 0 21 20" fill="none">
  <path d="M14.8749 5.00021H14.8785H14.8749ZM19.2324 3.75021H15.6753L16.0238 2.35724L17.5206 1.84747C17.839 1.73927 18.0285 1.40099 17.9367 1.07755C17.9133 0.996187 17.8737 0.920417 17.8201 0.854836C17.7666 0.789254 17.7003 0.735228 17.6253 0.696034C17.5503 0.65684 17.4681 0.633295 17.3837 0.626827C17.2993 0.620359 17.2144 0.631104 17.1343 0.658409L15.2984 1.28341C15.1995 1.31712 15.1107 1.37508 15.04 1.45199C14.9693 1.52889 14.919 1.62229 14.8937 1.72364L14.3871 3.75021H9.26752C8.93119 3.75021 8.64252 4.0088 8.62572 4.34513C8.62165 4.42963 8.63478 4.51409 8.66431 4.59337C8.69384 4.67265 8.73917 4.74511 8.79753 4.80636C8.85589 4.86761 8.92609 4.91637 9.00385 4.94969C9.08162 4.98301 9.16534 5.0002 9.24994 5.00021H9.35736L9.39643 5.33849C9.40563 5.41749 9.44354 5.49035 9.50296 5.54321C9.56238 5.59608 9.63916 5.62526 9.71869 5.62521C11.2421 5.62521 12.596 6.05099 13.6296 6.85646C14.2045 7.29942 14.6706 7.86794 14.9921 8.51856C15.1721 8.88454 15.305 9.27188 15.3874 9.6713C15.4039 9.74914 15.45 9.81751 15.516 9.86192C16.0473 10.2225 16.4393 10.754 16.6268 11.3682C16.8143 11.9824 16.7859 12.6423 16.5464 13.2381C16.5186 13.3071 16.5165 13.3837 16.5406 13.4541C16.679 13.8507 16.7497 14.2677 16.7499 14.6877C16.7499 15.5604 16.4531 16.392 15.914 17.0295C15.6084 17.3934 15.2239 17.6828 14.7898 17.876C14.7147 17.9091 14.6556 17.9704 14.6253 18.0467C14.4631 18.4693 14.234 18.8631 13.9468 19.2131C13.9349 19.2273 13.9272 19.2446 13.9247 19.263C13.9223 19.2814 13.9251 19.3001 13.9329 19.317C13.9407 19.3338 13.9531 19.3481 13.9687 19.3581C13.9843 19.3682 14.0025 19.3735 14.021 19.3736H15.9433C16.4139 19.3717 16.8668 19.1937 17.2128 18.8746C17.5587 18.5554 17.7726 18.1184 17.8124 17.6494L19.1484 5.00021H19.2499C19.3346 5.0003 19.4184 4.9832 19.4963 4.94992C19.5741 4.91665 19.6444 4.8679 19.7029 4.80664C19.7613 4.74538 19.8067 4.67289 19.8363 4.59355C19.8659 4.51422 19.879 4.4297 19.8749 4.34513C19.8585 4.0088 19.5687 3.75021 19.2324 3.75021Z" fill="#9284FF"/>
  <path d="M4.7457 12.5C4.86897 12.4994 4.99113 12.5233 5.10512 12.5702C5.2191 12.6172 5.32265 12.6862 5.40977 12.7734L6.01563 13.3793C6.03014 13.3938 6.04737 13.4053 6.06634 13.4132C6.08531 13.4211 6.10564 13.4251 6.12617 13.4251C6.14671 13.4251 6.16704 13.4211 6.18601 13.4132C6.20498 13.4053 6.22221 13.3938 6.23672 13.3793L6.84141 12.7734C6.92853 12.6862 7.03207 12.6172 7.14606 12.5702C7.26004 12.5233 7.3822 12.4994 7.50547 12.5H15.1844C15.2254 12.5004 15.2661 12.4927 15.3042 12.4774C15.3423 12.4621 15.377 12.4394 15.4063 12.4107C15.4356 12.382 15.4589 12.3477 15.475 12.31C15.4911 12.2722 15.4996 12.2317 15.5 12.1906V12.1875C15.4996 11.8274 15.375 11.4785 15.1473 11.1996C14.9196 10.9207 14.6027 10.7288 14.25 10.6562C14.218 9.49648 13.7422 8.52578 12.8629 7.84375C12.0496 7.20938 10.9629 6.875 9.71875 6.875H6.90625C4.24141 6.875 2.43633 8.38945 2.375 10.6562C2.02231 10.7288 1.70541 10.9207 1.47771 11.1996C1.25001 11.4785 1.12544 11.8274 1.125 12.1875C1.125 12.2704 1.15792 12.3499 1.21653 12.4085C1.27514 12.4671 1.35462 12.5 1.4375 12.5H4.7457ZM7.76328 13.75C7.72223 13.75 7.68158 13.758 7.64364 13.7737C7.60571 13.7894 7.57123 13.8124 7.54219 13.8414L6.67734 14.7066C6.53084 14.8531 6.33216 14.9354 6.125 14.9354C5.91784 14.9354 5.71916 14.8531 5.57266 14.7066L4.70781 13.8414C4.67877 13.8124 4.6443 13.7894 4.60636 13.7737C4.56842 13.758 4.52777 13.75 4.48672 13.75H1.77578C1.62897 13.7493 1.48665 13.8006 1.37399 13.8948C1.26134 13.9889 1.18559 14.1199 1.16016 14.2645C1.13665 14.4042 1.12489 14.5458 1.125 14.6875C1.125 15.8824 1.95039 16.8559 2.97109 16.875C3.06602 17.4656 3.2957 17.9992 3.64141 18.4168C4.15274 19.0344 4.8961 19.375 5.73438 19.375H10.8906C11.7289 19.375 12.4723 19.0344 12.9836 18.416C13.3293 17.9984 13.559 17.4648 13.6539 16.8742C14.6746 16.8559 15.5 15.8824 15.5 14.6867C15.5001 14.545 15.4884 14.4035 15.4648 14.2637C15.4392 14.1192 15.3634 13.9885 15.2508 13.8945C15.1381 13.8005 14.9959 13.7493 14.8492 13.75H7.76328Z" fill="#9284FF"/>
</svg>