<svg xmlns="http://www.w3.org/2000/svg" width="161" height="28" viewBox="0 0 161 28" fill="none">
  <path d="M19.8394 0C5.03744 0.746667 5.22481 13.8133 5.78691 25.1378C5.78691 26.6933 7.09848 28 8.65986 28H19.8394C38.2638 27.6889 38.2638 0.311111 19.8394 0ZM25.8976 16.6756H18.278C16.6542 16.6756 16.6542 14.1867 18.278 14.2489H25.5853C26.8344 14 25.6478 11.6356 25.273 10.9511C23.0246 6.90667 16.5293 6.90667 14.2809 10.9511C11.7826 14.9333 15.1552 20.3467 19.7769 20.16H26.1474C27.7712 20.16 27.7712 22.6489 26.1474 22.5867C24.0239 22.4622 18.7777 22.96 16.8415 22.0889C13.4065 20.9689 10.9083 17.6089 10.9083 14C10.8458 6.59556 20.339 2.67556 25.7102 7.59111C28.2709 9.58222 30.7691 16.1778 25.8976 16.6756Z" fill="#FF4083"/>
  <path d="M42.323 8.15197V11.9475H47.4444V14.3742H42.323V18.3564H48.0689V20.8453H39.2627V5.66309H48.0689V8.15197H42.323Z" fill="#383838"/>
  <path d="M57.5002 20.8448L55.0019 17.1115L52.816 20.8448H49.5683L53.503 14.8093L49.5059 8.83594H52.9409L55.3767 12.5693L57.6251 8.89816H60.8728L56.9381 14.8715L60.9352 20.907C60.9352 20.8448 57.5002 20.8448 57.5002 20.8448Z" fill="#383838"/>
  <path d="M66.9305 9.20941C67.6175 8.83608 68.4294 8.64941 69.3038 8.64941C70.3655 8.64941 71.2399 8.8983 72.1143 9.39608C72.9887 9.89386 73.6132 10.6405 74.1129 11.5739C74.6125 12.5072 74.8623 13.565 74.8623 14.8094C74.8623 16.0539 74.6125 17.1116 74.1129 18.045C73.6132 18.9783 72.9887 19.725 72.1143 20.2227C71.3024 20.7205 70.3655 20.9694 69.3038 20.9694C68.4294 20.9694 67.6175 20.7827 66.9929 20.4094C66.3059 20.0361 65.7438 19.6005 65.3691 19.0405V26.445H62.3088V8.83608H65.3691V10.5783C65.6814 10.0183 66.2435 9.58275 66.9305 9.20941ZM71.2399 12.9427C70.9276 12.3827 70.5529 12.0094 70.0533 11.7605C69.5536 11.5116 69.054 11.325 68.4919 11.325C67.9298 11.325 67.4301 11.4494 66.9305 11.7605C66.4308 12.0716 66.0561 12.445 65.7438 13.005C65.4316 13.565 65.3066 14.1872 65.3066 14.8716C65.3066 15.5561 65.4316 16.2405 65.7438 16.7383C66.0561 17.2983 66.4308 17.6716 66.9305 17.9827C67.4301 18.2939 67.9298 18.4183 68.4919 18.4183C69.054 18.4183 69.6161 18.2939 70.0533 17.9827C70.5529 17.6716 70.9276 17.2983 71.2399 16.7383C71.5522 16.1783 71.6771 15.5561 71.6771 14.8094C71.6771 14.0627 71.5522 13.4405 71.2399 12.9427Z" fill="#383838"/>
  <path d="M79.484 4.91602V20.9694H76.4237V4.91602H79.484Z" fill="#383838"/>
  <path d="M83.9188 20.4093C82.9819 19.9115 82.2325 19.1648 81.7328 18.2315C81.2332 17.2982 80.9209 16.2404 80.9209 14.9959C80.9209 13.7515 81.1707 12.6937 81.7328 11.7604C82.2949 10.827 83.0444 10.0804 83.9812 9.5826C84.9181 9.08483 85.9798 8.83594 87.104 8.83594C88.2282 8.83594 89.2899 9.08483 90.2892 9.5826C91.2261 10.0804 91.9755 10.827 92.5376 11.7604C93.0997 12.6937 93.3495 13.7515 93.3495 14.9959C93.3495 16.2404 93.0997 17.2982 92.5376 18.2315C91.9755 19.1648 91.2261 19.9115 90.2892 20.4093C89.3524 20.907 88.2906 21.1559 87.104 21.1559C85.9173 21.1559 84.8556 20.907 83.9188 20.4093ZM88.6029 18.107C89.1026 17.8582 89.4773 17.4226 89.7896 16.9248C90.1019 16.427 90.2268 15.7426 90.2268 14.9959C90.2268 13.8759 89.9145 13.0048 89.3524 12.3826C88.7903 11.7604 88.0408 11.4493 87.1665 11.4493C86.2921 11.4493 85.5426 11.7604 84.9805 12.3826C84.4184 13.0048 84.1061 13.8759 84.1061 14.9959C84.1061 16.1159 84.4184 16.987 84.9805 17.6093C85.5426 18.2315 86.2921 18.5426 87.1665 18.5426C87.6036 18.4804 88.1033 18.3559 88.6029 18.107Z" fill="#383838"/>
  <path d="M99.5944 9.33344C100.219 8.9601 100.968 8.77344 101.78 8.77344V11.9468H100.968C100.032 11.9468 99.2821 12.1957 98.7824 12.6312C98.2828 13.0668 98.033 13.8757 98.033 14.9957V20.969H94.9727V8.9601H98.033V10.8268C98.4702 10.2045 98.9698 9.70677 99.5944 9.33344Z" fill="#383838"/>
  <path d="M114.397 15.8673H105.59C105.653 16.7384 105.965 17.4229 106.527 17.9207C107.089 18.4184 107.714 18.6673 108.526 18.6673C109.65 18.6673 110.462 18.1695 110.962 17.2362H114.209C113.835 18.4184 113.21 19.3518 112.211 20.0984C111.211 20.8451 110.025 21.2184 108.588 21.2184C107.402 21.2184 106.402 20.9695 105.465 20.4718C104.529 19.974 103.842 19.2273 103.342 18.294C102.842 17.3607 102.593 16.3029 102.593 15.0584C102.593 13.814 102.842 12.694 103.342 11.8229C103.842 10.8895 104.529 10.1429 105.465 9.6451C106.402 9.14733 107.402 8.89844 108.651 8.89844C109.775 8.89844 110.837 9.14733 111.711 9.6451C112.585 10.1429 113.335 10.8273 113.835 11.7607C114.334 12.694 114.584 13.6895 114.584 14.8718C114.459 15.1207 114.397 15.5562 114.397 15.8673ZM111.336 13.814C111.336 13.0673 111.024 12.3829 110.462 11.9473C109.9 11.5118 109.213 11.2629 108.463 11.2629C107.714 11.2629 107.089 11.5118 106.527 11.9473C106.028 12.3829 105.715 13.0673 105.59 13.814H111.336Z" fill="#383838"/>
  <path d="M127.513 6.78294C128.699 7.40516 129.636 8.27628 130.323 9.4585C131.01 10.5785 131.323 11.9474 131.323 13.4407C131.323 14.9341 131.01 16.3029 130.323 17.4229C129.636 18.5429 128.699 19.4141 127.513 20.0363C126.326 20.6585 124.89 20.9696 123.328 20.9696H118.02V5.84961H123.328C124.89 5.84961 126.264 6.16072 127.513 6.78294ZM126.888 17.1118C127.763 16.2407 128.2 14.9963 128.2 13.4407C128.2 11.8852 127.763 10.6407 126.888 9.76961C126.014 8.8985 124.765 8.46294 123.203 8.46294H121.08V18.4185H123.203C124.765 18.3563 126.014 17.9207 126.888 17.1118Z" fill="#383838"/>
  <path d="M144.188 15.8673H135.382C135.444 16.7384 135.756 17.4229 136.319 17.9207C136.881 18.4184 137.505 18.6673 138.317 18.6673C139.441 18.6673 140.253 18.1695 140.753 17.2362H144.001C143.626 18.4184 143.001 19.3518 142.002 20.0984C141.003 20.8451 139.816 21.2184 138.38 21.2184C137.193 21.2184 136.194 20.9695 135.257 20.4718C134.32 19.974 133.633 19.2273 133.133 18.294C132.634 17.3607 132.384 16.3029 132.384 15.0584C132.384 13.814 132.634 12.694 133.133 11.8229C133.633 10.8895 134.32 10.1429 135.257 9.6451C136.194 9.14733 137.193 8.89844 138.442 8.89844C139.566 8.89844 140.628 9.14733 141.502 9.6451C142.377 10.1429 143.126 10.8273 143.626 11.7607C144.125 12.694 144.375 13.6895 144.375 14.8718C144.313 15.1207 144.25 15.5562 144.188 15.8673ZM141.128 13.814C141.128 13.0673 140.815 12.3829 140.253 11.9473C139.691 11.5118 139.004 11.2629 138.255 11.2629C137.505 11.2629 136.881 11.5118 136.319 11.9473C135.819 12.3829 135.507 13.0673 135.382 13.814H141.128Z" fill="#383838"/>
  <path d="M155.742 10.1423C156.616 11.0757 157.053 12.3201 157.053 13.9379V20.969H153.993V14.3112C153.993 13.3779 153.743 12.6312 153.306 12.1334C152.806 11.6357 152.182 11.3868 151.37 11.3868C150.495 11.3868 149.871 11.6357 149.371 12.1334C148.872 12.6312 148.622 13.3779 148.622 14.3112V20.9068H145.562V8.9601H148.622V10.4534C148.997 9.95566 149.559 9.5201 150.183 9.20899C150.808 8.89788 151.495 8.77344 152.244 8.77344C153.681 8.77344 154.867 9.27121 155.742 10.1423Z" fill="#383838"/>
</svg>