<svg xmlns="http://www.w3.org/2000/svg" width="18" height="18" viewBox="0 0 18 18" fill="none">
  <g clip-path="url(#clip0_573_22485)">
    <path d="M18.0167 6.4812H17.111L14.7816 1.35425C14.6762 1.12229 14.5042 0.925208 14.2866 0.786891C14.069 0.648574 13.8151 0.574954 13.5556 0.574951H3.69438C3.43488 0.574954 3.18095 0.648574 2.96336 0.786891C2.74577 0.925208 2.57385 1.12229 2.46843 1.35425L0.138958 6.4812H-0.766667C-0.944583 6.4812 -1.11521 6.55034 -1.24102 6.67341C-1.36682 6.79648 -1.4375 6.9634 -1.4375 7.13745C-1.4375 7.3115 -1.36682 7.47842 -1.24102 7.60149C-1.11521 7.72456 -0.944583 7.7937 -0.766667 7.7937H-0.0958333V14.3562C-0.0958333 14.7043 0.0455204 15.0381 0.297132 15.2843C0.548743 15.5304 0.890001 15.6687 1.24583 15.6687H3.25833C3.61417 15.6687 3.95542 15.5304 4.20703 15.2843C4.45865 15.0381 4.6 14.7043 4.6 14.3562V13.0437H12.65V14.3562C12.65 14.7043 12.7914 15.0381 13.043 15.2843C13.2946 15.5304 13.6358 15.6687 13.9917 15.6687H16.0042C16.36 15.6687 16.7013 15.5304 16.9529 15.2843C17.2045 15.0381 17.3458 14.7043 17.3458 14.3562V7.7937H18.0167C18.1946 7.7937 18.3652 7.72456 18.491 7.60149C18.6168 7.47842 18.6875 7.3115 18.6875 7.13745C18.6875 6.9634 18.6168 6.79648 18.491 6.67341C18.3652 6.55034 18.1946 6.4812 18.0167 6.4812ZM3.69438 1.88745H13.5556L15.6428 6.4812H1.60724L3.69438 1.88745ZM3.25833 14.3562H1.24583V13.0437H3.25833V14.3562ZM13.9917 14.3562V13.0437H16.0042V14.3562H13.9917ZM16.0042 11.7312H1.24583V7.7937H16.0042V11.7312ZM2.5875 9.76245C2.5875 9.5884 2.65818 9.42148 2.78398 9.29841C2.90979 9.17534 3.08042 9.1062 3.25833 9.1062H4.6C4.77792 9.1062 4.94854 9.17534 5.07435 9.29841C5.20016 9.42148 5.27083 9.5884 5.27083 9.76245C5.27083 9.9365 5.20016 10.1034 5.07435 10.2265C4.94854 10.3496 4.77792 10.4187 4.6 10.4187H3.25833C3.08042 10.4187 2.90979 10.3496 2.78398 10.2265C2.65818 10.1034 2.5875 9.9365 2.5875 9.76245ZM11.9792 9.76245C11.9792 9.5884 12.0498 9.42148 12.1756 9.29841C12.3015 9.17534 12.4721 9.1062 12.65 9.1062H13.9917C14.1696 9.1062 14.3402 9.17534 14.466 9.29841C14.5918 9.42148 14.6625 9.5884 14.6625 9.76245C14.6625 9.9365 14.5918 10.1034 14.466 10.2265C14.3402 10.3496 14.1696 10.4187 13.9917 10.4187H12.65C12.4721 10.4187 12.3015 10.3496 12.1756 10.2265C12.0498 10.1034 11.9792 9.9365 11.9792 9.76245Z" fill="#7A7A7A"/>
  </g>
  <defs>
    <clipPath id="clip0_573_22485">
      <rect width="17.25" height="17.25" fill="white"/>
    </clipPath>
  </defs>
</svg>