<svg width="24" height="24" viewBox="0 0 24 24" fill="none" xmlns="http://www.w3.org/2000/svg">
<g id="Star 7">
<path id="Star 3" d="M11.4294 1.75623C11.609 1.20344 12.391 1.20344 12.5706 1.75623L14.5595 7.87721C14.6398 8.12442 14.8702 8.2918 15.1301 8.2918H21.5661C22.1473 8.2918 22.389 9.03557 21.9187 9.37721L16.7119 13.1602C16.5016 13.313 16.4136 13.5838 16.494 13.831L18.4828 19.952C18.6624 20.5048 18.0297 20.9644 17.5595 20.6228L12.3527 16.8398C12.1424 16.687 11.8576 16.687 11.6473 16.8398L6.44052 20.6228C5.97029 20.9644 5.3376 20.5048 5.51721 19.952L7.50604 13.831C7.58636 13.5838 7.49837 13.313 7.28807 13.1602L2.08126 9.37721C1.61103 9.03557 1.8527 8.2918 2.43393 8.2918H8.86991C9.12984 8.2918 9.36022 8.12442 9.44054 7.87721L11.4294 1.75623Z" fill="#D8D4D5"/>
</g>
</svg>
